<svg width="72" height="72" viewBox="0 0 72 72" fill="none" xmlns="http://www.w3.org/2000/svg">
<g clip-path="url(#clip0_10732_48216)">
<path d="M0 3.14722e-06L3.14722e-06 36L72 36V0L0 3.14722e-06Z" fill="#404492"/>
<path d="M0 18C-8.70585e-07 8.04167 8.11561 8.6594e-07 18.0208 0C27.926 -8.6594e-07 36 8.08333 36 18V36C36 26.0417 44.1156 18 54.0208 18C63.926 18 72 26.0833 72 36L72 72L4.72083e-06 72L0 18Z" fill="#22244E"/>
<path d="M6.05578e-06 72L9.91476 65.0125L4.81574 54L16.9023 52.9023L18 40.8157L29.0125 45.9148L36 36L42.9875 45.9148L54 40.8157L55.0977 52.9023L67.1843 54L62.0852 65.0125L72 72L6.05578e-06 72Z" fill="#FF7D6A"/>
<path d="M14.7727 30.2273L13.5 27L12.2273 30.2273L9 31.5L12.2273 32.7727L13.5 36L14.7727 32.7727L18 31.5L14.7727 30.2273Z" fill="#FAF6E7"/>
<path d="M59.7727 30.2273L58.5 27L57.2273 30.2273L54 31.5L57.2273 32.7727L58.5 36L59.7727 32.7727L63 31.5L59.7727 30.2273Z" fill="#FAF6E7"/>
<path d="M0 72L1.90735e-06 45L14.9768 59.9768L35.8439 18L56.9769 60.0231L72 45V72L0 72Z" fill="#FEB602"/>
<path d="M40.5 40.5C40.5 42.9853 38.4853 45 36 45C33.5147 45 31.5 42.9853 31.5 40.5C31.5 38.0147 33.5147 36 36 36C38.4853 36 40.5 38.0147 40.5 40.5Z" fill="#FAF6E7"/>
<path d="M45 63C45 67.9706 40.9706 72 36 72C31.0294 72 27 67.9706 27 63C27 58.0294 31.0294 54 36 54C40.9706 54 45 58.0294 45 63Z" fill="#FAF6E7"/>
<path d="M40.5 63C40.5 65.4853 38.4853 67.5 36 67.5C33.5147 67.5 31.5 65.4853 31.5 63C31.5 60.5147 33.5147 58.5 36 58.5C38.4853 58.5 40.5 60.5147 40.5 63Z" fill="#FF7D6A"/>
<path d="M36 0C26.0417 0 18 8.08333 18 18H27C27 13.0417 31.0417 8.99998 36 8.99998C40.9583 8.99998 45 13.0417 45 18L54 18C54 8.04167 45.9167 0 36 0Z" fill="#FAF6E7"/>
</g>
<defs>
<clipPath id="clip0_10732_48216">
<rect width="72" height="72" rx="4" fill="white"/>
</clipPath>
</defs>
</svg>
