<svg width="72" height="72" viewBox="0 0 72 72" fill="none" xmlns="http://www.w3.org/2000/svg">
<g clip-path="url(#clip0_10732_48235)">
<path d="M3.8147e-06 0L72 3.14722e-06V36L0 36L3.8147e-06 0Z" fill="#8FADF4"/>
<path d="M72 18C72 8.04166 63.8844 0 53.9792 0C44.074 -2.44137e-06 36 8.08333 36 18L36 36C36 26.0417 27.8844 18 17.9792 18C8.07399 18 3.10803e-06 26.0833 3.8147e-06 36L0 72L72 72L72 18Z" fill="#336AEA"/>
<path d="M18 27L9 63L9.00001 72H27V63L18 27Z" fill="#FF7D6A"/>
<path d="M45 72H27V63L18 27H54L49.4105 45.3579C62.2301 47.4611 72 58.5819 72 72H45Z" fill="#22244E"/>
<path fill-rule="evenodd" clip-rule="evenodd" d="M27 27L45 27L36.052 45L27 27Z" fill="#FF7D6A"/>
<path d="M36 27C40.9706 27 45 22.9706 45 18C45 13.0294 40.9706 9 36 9C31.0294 9 27 13.0294 27 18C27 22.9706 31.0294 27 36 27Z" fill="#FAF6E7"/>
<path d="M40.5 20.25C40.5 22.7396 38.4711 24.75 35.9948 24.75C33.5185 24.75 31.5 22.7292 31.5 20.25L40.5 20.25Z" fill="#22244E"/>
<path d="M63 13.5C63 15.9853 60.9853 18 58.5 18C56.0147 18 54 15.9853 54 13.5C54 11.0147 56.0147 9 58.5 9C60.9853 9 63 11.0147 63 13.5Z" fill="#FAF6E7"/>
<path d="M14.7727 21.2273L13.5 18L12.2273 21.2273L9 22.5L12.2273 23.7727L13.5 27L14.7727 23.7727L18 22.5L14.7727 21.2273Z" fill="#FAF6E7"/>
<path d="M59.7727 39.2273L58.5 36L57.2273 39.2273L54 40.5L57.2273 41.7727L58.5 45L59.7727 41.7727L63 40.5L59.7727 39.2273Z" fill="#FAF6E7"/>
<path d="M45 9C45 4.0266 40.9734 0 36 0C31.0266 0 27 4.02659 27 9H31.5C31.5 6.51329 33.5237 4.5 36 4.5C38.4867 4.5 40.5 6.5237 40.5 9H45Z" fill="#22244E"/>
<path d="M36 9C31.0266 9 27 13.0266 27 18H36V9Z" fill="#22244E"/>
<path d="M36 18H45C45 13.0266 40.9734 9 36 9V18Z" fill="#22244E"/>
</g>
<defs>
<clipPath id="clip0_10732_48235">
<rect width="72" height="72" rx="4" fill="white"/>
</clipPath>
</defs>
</svg>
