<svg width="72" height="72" viewBox="0 0 72 72" fill="none" xmlns="http://www.w3.org/2000/svg">
<g clip-path="url(#clip0_10732_48103)">
<rect width="72" height="72" transform="matrix(1 0 0 -1 0 72)" fill="#FEB602"/>
<path d="M0 54C0 63.9583 8.11561 72 18.0208 72C27.926 72 36 63.9167 36 54V45L72 45V18C72 8.04166 63.8844 0 53.9792 0C44.074 0 36 8.08333 36 18L36 27H0V54Z" fill="#FAF6E7"/>
<path d="M19.2727 57.2273L18 54L16.7273 57.2273L13.5 58.5L16.7273 59.7727L18 63L19.2727 59.7727L22.5 58.5L19.2727 57.2273Z" fill="#22244E"/>
<path d="M55.2727 12.2273L54 9L52.7273 12.2273L49.5 13.5L52.7273 14.7727L54 18L55.2727 14.7727L58.5 13.5L55.2727 12.2273Z" fill="#22244E"/>
<path d="M59.7727 61.7273L58.5 58.5L57.2273 61.7273L54 63L57.2273 64.2727L58.5 67.5L59.7727 64.2727L63 63L59.7727 61.7273Z" fill="#FAF6E7"/>
<path d="M14.7727 7.72729L13.5 4.5L12.2273 7.72729L9 9L12.2273 10.2727L13.5 13.5L14.7727 10.2727L18 9L14.7727 7.72729Z" fill="#FAF6E7"/>
<path d="M67.5 36C67.5 26.0532 59.4468 18 49.5 18L49.5 27C54.4734 27 58.5 31.0474 58.5 36L67.5 36Z" fill="#336AEA"/>
<path d="M22.5 27V18L49.5 45C54.4526 45 58.5 40.9734 58.5 36H67.5C67.5 45.9468 59.4468 54 49.5 54L22.5 27Z" fill="#336AEA"/>
<path d="M4.5 36C4.5 26.0532 12.5532 18 22.5 18V27C17.5474 27 13.5 31.0266 13.5 36C13.5 40.9526 17.5266 45 22.5 45L49.5 18V27L22.5 54C12.5532 54 4.5 45.9468 4.5 36Z" fill="#22244E"/>
</g>
<defs>
<clipPath id="clip0_10732_48103">
<rect width="72" height="72" rx="4" fill="white"/>
</clipPath>
</defs>
</svg>
